<svg width="66" height="66" viewBox="0 0 66 66" fill="none" xmlns="http://www.w3.org/2000/svg">
<circle cx="32.7081" cy="32.7081" r="23.5" transform="rotate(119.509 32.7081 32.7081)" stroke="url(#paint0_linear_119_91)"/>
<path d="M36.6 27.2001C36.6 28.1549 36.2207 29.0706 35.5455 29.7457C34.8704 30.4208 33.9547 30.8001 33 30.8001C32.0452 30.8001 31.1295 30.4208 30.4544 29.7457C29.7792 29.0706 29.4 28.1549 29.4 27.2001C29.4 26.2453 29.7792 25.3296 30.4544 24.6545C31.1295 23.9794 32.0452 23.6001 33 23.6001C33.9547 23.6001 34.8704 23.9794 35.5455 24.6545C36.2207 25.3296 36.6 26.2453 36.6 27.2001V27.2001Z" fill="url(#paint1_linear_119_91)"/>
<path d="M42.6001 29.6002C42.6001 30.2367 42.3472 30.8472 41.8971 31.2973C41.447 31.7473 40.8366 32.0002 40.2001 32.0002C39.5635 32.0002 38.9531 31.7473 38.503 31.2973C38.0529 30.8472 37.8 30.2367 37.8 29.6002C37.8 28.9637 38.0529 28.3532 38.503 27.9031C38.9531 27.4531 39.5635 27.2002 40.2001 27.2002C40.8366 27.2002 41.447 27.4531 41.8971 27.9031C42.3472 28.3532 42.6001 28.9637 42.6001 29.6002V29.6002Z" fill="url(#paint2_linear_119_91)"/>
<path d="M37.7999 38.0002C37.7999 36.7272 37.2942 35.5063 36.3941 34.6061C35.4939 33.7059 34.273 33.2002 33 33.2002C31.7269 33.2002 30.506 33.7059 29.6058 34.6061C28.7057 35.5063 28.2 36.7272 28.2 38.0002V41.6002H37.7999V38.0002Z" fill="url(#paint3_linear_119_91)"/>
<path d="M28.2 29.6002C28.2 30.2367 27.9471 30.8472 27.497 31.2973C27.0469 31.7473 26.4365 32.0002 25.8 32.0002C25.1634 32.0002 24.553 31.7473 24.1029 31.2973C23.6528 30.8472 23.4 30.2367 23.4 29.6002C23.4 28.9637 23.6528 28.3532 24.1029 27.9031C24.553 27.4531 25.1634 27.2002 25.8 27.2002C26.4365 27.2002 27.0469 27.4531 27.497 27.9031C27.9471 28.3532 28.2 28.9637 28.2 29.6002V29.6002Z" fill="url(#paint4_linear_119_91)"/>
<path d="M40.2 41.6002V38.0002C40.2018 36.7801 39.892 35.5798 39.3 34.513C39.8321 34.3768 40.3882 34.364 40.9259 34.4754C41.4636 34.5869 41.9688 34.8197 42.4029 35.1561C42.8369 35.4924 43.1885 35.9235 43.4306 36.4164C43.6727 36.9093 43.7991 37.451 43.8 38.0002V41.6002H40.2Z" fill="url(#paint5_linear_119_91)"/>
<path d="M26.7 34.513C26.108 35.5799 25.7983 36.7801 25.8 38.0002V41.6002H22.2V38.0002C22.1997 37.4506 22.3253 36.9083 22.5671 36.4148C22.8089 35.9213 23.1604 35.4897 23.5948 35.1531C24.0292 34.8165 24.5349 34.5838 25.0731 34.4728C25.6114 34.3619 26.1679 34.3756 26.7 34.513V34.513Z" fill="url(#paint6_linear_119_91)"/>
<circle cx="7" cy="42" r="1" fill="#F0868A"/>
<circle cx="20" cy="47" r="1" fill="#F0868A"/>
<circle cx="24" cy="7" r="1" fill="#F0868A"/>
<circle cx="16.5" cy="16.5" r="0.5" fill="#F0868A"/>
<circle cx="18.5" cy="10.5" r="0.5" fill="#F0868A"/>
<circle cx="12.5" cy="48.5" r="0.5" fill="#F0868A"/>
<defs>
<linearGradient id="paint0_linear_119_91" x1="32.7081" y1="8.70811" x2="32.7081" y2="56.7081" gradientUnits="userSpaceOnUse">
<stop stop-color="#FF7D7D"/>
<stop offset="1" stop-color="#2C2E59"/>
</linearGradient>
<linearGradient id="paint1_linear_119_91" x1="33" y1="23.6001" x2="33" y2="30.8001" gradientUnits="userSpaceOnUse">
<stop stop-color="#EF777B"/>
<stop offset="1" stop-color="#F08F92"/>
</linearGradient>
<linearGradient id="paint2_linear_119_91" x1="40.2001" y1="27.2002" x2="40.2001" y2="32.0002" gradientUnits="userSpaceOnUse">
<stop stop-color="#EF777B"/>
<stop offset="1" stop-color="#F08F92"/>
</linearGradient>
<linearGradient id="paint3_linear_119_91" x1="33" y1="33.2002" x2="33" y2="41.6002" gradientUnits="userSpaceOnUse">
<stop stop-color="#EF777B"/>
<stop offset="1" stop-color="#F08F92"/>
</linearGradient>
<linearGradient id="paint4_linear_119_91" x1="25.8" y1="27.2002" x2="25.8" y2="32.0002" gradientUnits="userSpaceOnUse">
<stop stop-color="#EF777B"/>
<stop offset="1" stop-color="#F08F92"/>
</linearGradient>
<linearGradient id="paint5_linear_119_91" x1="41.55" y1="34.4004" x2="41.55" y2="41.6002" gradientUnits="userSpaceOnUse">
<stop stop-color="#EF777B"/>
<stop offset="1" stop-color="#F08F92"/>
</linearGradient>
<linearGradient id="paint6_linear_119_91" x1="24.45" y1="34.3987" x2="24.45" y2="41.6002" gradientUnits="userSpaceOnUse">
<stop stop-color="#EF777B"/>
<stop offset="1" stop-color="#F08F92"/>
</linearGradient>
</defs>
</svg>
