<svg width="66" height="66" viewBox="0 0 66 66" fill="none" xmlns="http://www.w3.org/2000/svg">
<circle cx="32.7081" cy="32.7081" r="23.5" transform="rotate(119.509 32.7081 32.7081)" stroke="url(#paint0_linear_119_93)"/>
<path d="M27.0119 38H41.9999V24C41.9999 22.897 41.1029 22 39.9999 22H26.9999C25.7939 22 23.9999 22.799 23.9999 25V39C23.9999 41.201 25.7939 42 26.9999 42H41.9999V40H27.0119C26.5499 39.988 25.9999 39.806 25.9999 39C25.9999 38.899 26.0089 38.809 26.0239 38.727C26.1359 38.151 26.6079 38.01 27.0119 38V38ZM29.6479 27.642C30.0642 27.2311 30.6255 27.0006 31.2104 27.0006C31.7953 27.0006 32.3567 27.2311 32.7729 27.642L32.9969 27.861L33.2199 27.642C33.6363 27.231 34.1979 27.0006 34.7829 27.0006C35.368 27.0006 35.9295 27.231 36.3459 27.642C36.5525 27.8406 36.7168 28.079 36.8291 28.3426C36.9413 28.6063 36.9992 28.8899 36.9992 29.1765C36.9992 29.4631 36.9413 29.7467 36.8291 30.0104C36.7168 30.274 36.5525 30.5124 36.3459 30.711L32.9979 34L29.6489 30.711C29.4422 30.5125 29.2777 30.2743 29.1653 30.0106C29.0529 29.747 28.9949 29.4633 28.9948 29.1767C28.9947 28.8901 29.0525 28.6064 29.1647 28.3427C29.277 28.079 29.4413 27.8406 29.6479 27.642V27.642Z" fill="url(#paint1_linear_119_93)"/>
<circle cx="12.9999" cy="13" r="1" fill="#BBAC64"/>
<circle cx="47.9999" cy="46" r="1" fill="#BBAC64"/>
<circle cx="17.4999" cy="17.5" r="0.5" fill="#BBAC64"/>
<circle cx="9.49988" cy="18.5" r="0.5" fill="#BBAC64"/>
<circle cx="12.4999" cy="24.5" r="0.5" fill="#BBAC64"/>
<circle cx="43.4999" cy="50.5" r="0.5" fill="#BBAC64"/>
<circle cx="50.4999" cy="52.5" r="0.5" fill="#BBAC64"/>
<defs>
<linearGradient id="paint0_linear_119_93" x1="32.7081" y1="8.70811" x2="32.7081" y2="56.7081" gradientUnits="userSpaceOnUse">
<stop stop-color="#B8A74D"/>
<stop offset="1" stop-color="#2C2E59"/>
</linearGradient>
<linearGradient id="paint1_linear_119_93" x1="32.9999" y1="22" x2="32.9999" y2="42" gradientUnits="userSpaceOnUse">
<stop stop-color="#B0A04E"/>
<stop offset="1" stop-color="#CCC18A"/>
</linearGradient>
</defs>
</svg>
