<svg width="52" height="49" viewBox="0 0 52 49" fill="none" xmlns="http://www.w3.org/2000/svg">
<circle cx="26.7083" cy="24.4558" r="23.5" transform="rotate(88.9013 26.7083 24.4558)" stroke="url(#paint0_linear_119_92)"/>
<g clip-path="url(#clip0_119_92)">
<path d="M29.1425 21.9905C29.286 21.9905 29.4243 22.0135 29.5575 22.0519L32.042 19.0065C32.2008 18.8118 32.4953 18.7759 32.6874 18.9399C32.8744 19.0961 32.9 19.3753 32.7438 19.5648L30.2874 22.577C30.4539 22.8075 30.5538 23.0919 30.5538 23.3992C30.5538 23.9704 30.2106 24.4648 29.7214 24.685H39.3598C39.7133 24.685 40.0001 24.3982 40.0001 24.0447V15.9379C40.0001 15.5845 39.7133 15.2976 39.3598 15.2976H27.1165C26.763 15.2976 26.4761 15.5845 26.4761 15.9379V21.2605L27.055 21.993H29.1425V21.9905Z" fill="url(#paint1_linear_119_92)"/>
<path d="M21.156 18.4915C22.6046 18.4915 23.7789 17.3172 23.7789 15.8687C23.7789 14.4201 22.6046 13.2458 21.156 13.2458C19.7075 13.2458 18.5332 14.4201 18.5332 15.8687C18.5332 17.3172 19.7075 18.4915 21.156 18.4915Z" fill="url(#paint2_linear_119_92)"/>
<path d="M23.8455 35.609C23.8455 35.9625 23.5587 36.2494 23.2052 36.2494H22.1294C21.7759 36.2494 21.4891 35.9625 21.4891 35.609V30.2404C21.4891 30.0509 21.3354 29.8972 21.1458 29.8972C20.9563 29.8972 20.8026 30.0509 20.8026 30.2404V35.5834C20.8026 35.9497 20.5029 36.2494 20.1367 36.2494H19.0839C18.7305 36.2494 18.4436 35.9625 18.4436 35.609L18.4385 22.6485C18.4385 22.4743 18.2976 22.3309 18.1209 22.3309C17.9467 22.3309 17.8033 22.4718 17.8033 22.6485V27.6329C17.8033 27.9864 17.5164 28.2733 17.1629 28.2733H16.6404C16.2869 28.2733 16.0001 27.9864 16.0001 27.6329V20.7992C16.0001 19.9873 16.6583 19.3315 17.4677 19.3315H23.3C23.9249 19.3315 24.5166 19.6184 24.9059 20.1076L26.4735 22.085L26.8039 22.5025C26.8039 22.5025 28.2895 22.5025 29.145 22.5051C29.4984 22.5051 29.7853 22.7919 29.7853 23.1454V23.6551C29.7853 24.0086 29.4984 24.2955 29.145 24.2955H26.3736C26.0995 24.2955 25.8408 24.17 25.6718 23.9548L24.5038 22.4538C24.4449 22.377 24.3501 22.3309 24.2528 22.3309H24.1734C23.9992 22.3309 23.8558 22.4718 23.8558 22.6485L23.8455 35.609Z" fill="url(#paint3_linear_119_92)"/>
</g>
<circle cx="8" cy="30.7476" r="1" fill="#6ABC9C"/>
<circle cx="43" cy="3.74756" r="1" fill="#6ABC9C"/>
<circle cx="0.5" cy="32.2476" r="0.5" fill="#6ABC9C"/>
<circle cx="5.5" cy="37.2476" r="0.5" fill="#6ABC9C"/>
<circle cx="47.5" cy="8.24756" r="0.5" fill="#6ABC9C"/>
<circle cx="44.5" cy="15.2476" r="0.5" fill="#6ABC9C"/>
<defs>
<linearGradient id="paint0_linear_119_92" x1="26.7083" y1="0.455788" x2="26.7083" y2="48.4558" gradientUnits="userSpaceOnUse">
<stop stop-color="#4DB88D"/>
<stop offset="1" stop-color="#2C2E59"/>
</linearGradient>
<linearGradient id="paint1_linear_119_92" x1="33.2381" y1="15.2976" x2="33.2381" y2="24.685" gradientUnits="userSpaceOnUse">
<stop stop-color="#4DB68D"/>
<stop offset="1" stop-color="#8CC3AE"/>
</linearGradient>
<linearGradient id="paint2_linear_119_92" x1="21.156" y1="13.2458" x2="21.156" y2="18.4915" gradientUnits="userSpaceOnUse">
<stop stop-color="#4DB68D"/>
<stop offset="1" stop-color="#8CC3AE"/>
</linearGradient>
<linearGradient id="paint3_linear_119_92" x1="22.8927" y1="19.3315" x2="22.8927" y2="36.2494" gradientUnits="userSpaceOnUse">
<stop stop-color="#4DB68D"/>
<stop offset="1" stop-color="#8CC3AE"/>
</linearGradient>
<clipPath id="clip0_119_92">
<rect width="24" height="24" fill="white" transform="translate(16.0001 12.7476)"/>
</clipPath>
</defs>
</svg>
